<svg width="20" height="20" viewBox="0 0 20 20" fill="none" xmlns="http://www.w3.org/2000/svg">
<path d="M0.417454 3.71703C3.16238 6.04168 7.97886 10.1314 9.39449 11.4066C9.58452 11.5788 9.78835 11.6663 9.99995 11.6663C10.2111 11.6663 10.4146 11.5796 10.6042 11.4083C12.021 10.1318 16.8375 6.04168 19.5825 3.71703C19.7534 3.57258 19.7794 3.31867 19.6411 3.14207C19.3212 2.73398 18.8444 2.5 18.3333 2.5H1.66663C1.15558 2.5 0.678665 2.73398 0.35886 3.14211C0.220501 3.31867 0.246556 3.57258 0.417454 3.71703Z" fill="#E8E8E8"/>
<path d="M19.7583 4.97635C19.6106 4.9076 19.4369 4.93158 19.314 5.03658C16.2699 7.61713 12.3848 10.9249 11.1625 12.0263C10.4764 12.6456 9.5243 12.6456 8.83664 12.0255C7.53375 10.8516 3.17094 7.14267 0.686016 5.03654C0.562305 4.93154 0.388164 4.90838 0.24168 4.97631C0.0944141 5.0447 0 5.19201 0 5.35435V15.8329C0 16.7521 0.747461 17.4995 1.66668 17.4995H18.3334C19.2525 17.4995 20 16.7521 20 15.8329V5.35435C20 5.19201 19.9056 5.04431 19.7583 4.97635Z" fill="#E8E8E8"/>
</svg>
