<svg width="20" height="20" viewBox="0 0 20 20" fill="none" xmlns="http://www.w3.org/2000/svg">
<g clip-path="url(#clip0)">
<path d="M19.6819 3.61696C19.2375 3.814 18.7762 3.96946 18.3029 4.082C18.8245 3.58638 19.2166 2.96647 19.4379 2.27454C19.501 2.077 19.2864 1.90619 19.1081 2.01195C18.4496 2.40254 17.7403 2.69555 16.9998 2.88294C16.9569 2.89382 16.9126 2.89933 16.8681 2.89933C16.7332 2.89933 16.6021 2.84925 16.499 2.75836C15.7112 2.06403 14.6979 1.68164 13.646 1.68164C13.1908 1.68164 12.7312 1.75259 12.28 1.89254C10.8819 2.32618 9.8031 3.47945 9.46465 4.90233C9.33767 5.43603 9.30329 5.97021 9.36239 6.49002C9.36917 6.54975 9.34094 6.59144 9.32353 6.611C9.29296 6.64528 9.24961 6.66493 9.2046 6.66493C9.19958 6.66493 9.19441 6.66468 9.18929 6.6642C6.12888 6.37986 3.36915 4.90545 1.41842 2.51259C1.31895 2.39054 1.12819 2.40551 1.0489 2.54151C0.666901 3.19687 0.465027 3.94644 0.465027 4.70918C0.465027 5.8781 0.934654 6.97969 1.75039 7.78275C1.40735 7.70141 1.07533 7.57332 0.766912 7.40201C0.617701 7.31912 0.434111 7.42566 0.432015 7.59633C0.410657 9.33284 1.42735 10.878 2.95038 11.5738C2.91971 11.5745 2.88904 11.5749 2.85832 11.5749C2.6169 11.5749 2.37245 11.5516 2.13186 11.5056C1.96383 11.4735 1.82266 11.6329 1.87483 11.7958C2.36918 13.3392 3.69805 14.4768 5.28828 14.7351C3.96848 15.6211 2.43155 16.0884 0.831912 16.0884L0.333223 16.0881C0.179574 16.0881 0.0496227 16.1883 0.0104668 16.3371C-0.028104 16.4837 0.0429423 16.6383 0.173966 16.7145C1.9765 17.7635 4.03256 18.3179 6.12074 18.3179C7.94859 18.3179 9.65838 17.9552 11.2027 17.2399C12.6184 16.5841 13.8694 15.6466 14.921 14.4535C15.9007 13.3422 16.6667 12.0592 17.1978 10.6403C17.7041 9.28779 17.9717 7.84463 17.9717 6.46681V6.40117C17.9717 6.17994 18.0717 5.97177 18.2463 5.83007C18.9087 5.29223 19.4856 4.6591 19.9608 3.9483C20.0862 3.76061 19.8884 3.52538 19.6819 3.61696Z" fill="#E8E8E8"/>
</g>
<defs>
<clipPath id="clip0">
<rect width="20" height="20" fill="white"/>
</clipPath>
</defs>
</svg>
