<svg width="20" height="20" viewBox="0 0 20 20" fill="none" xmlns="http://www.w3.org/2000/svg">
<g clip-path="url(#clip0)">
<path d="M9.51503 0.0115662C4.23306 0.263064 0.0648331 4.66192 0.0808566 9.94987C0.0857354 11.5605 0.474557 13.0806 1.16046 14.4238L0.107355 19.5357C0.050388 19.8122 0.299781 20.0543 0.574477 19.9893L5.58353 18.8026C6.87043 19.4436 8.3159 19.8139 9.84569 19.8372C15.2444 19.9197 19.7459 15.633 19.9142 10.2363C20.0946 4.45142 15.3201 -0.264899 9.51503 0.0115662ZM15.4919 15.4111C14.025 16.8781 12.0745 17.6859 10 17.6859C8.78527 17.6859 7.6223 17.4134 6.54327 16.8759L5.84569 16.5284L2.77463 17.256L3.42107 14.1179L3.0774 13.445C2.51725 12.3479 2.23322 11.1617 2.23322 9.91917C2.23322 7.84458 3.0411 5.8942 4.50804 4.42721C5.96188 2.97338 7.94411 2.15235 10.0001 2.15235C12.0747 2.1524 14.025 2.96027 15.492 4.42717C16.9589 5.89411 17.7668 7.84448 17.7668 9.91902C17.7668 11.9751 16.9457 13.9573 15.4919 15.4111Z" fill="#E8E8E8"/>
<path d="M14.8139 12.0701L12.8926 11.5184C12.64 11.4459 12.368 11.5175 12.1839 11.7051L11.7141 12.1838C11.516 12.3856 11.2153 12.4505 10.9531 12.3444C10.0442 11.9766 8.13232 10.2767 7.64405 9.42636C7.50319 9.18108 7.52648 8.87443 7.69944 8.65062L8.10964 8.11993C8.27036 7.91201 8.30427 7.63277 8.19799 7.39242L7.38964 5.56416C7.19602 5.12626 6.63644 4.99879 6.27086 5.30797C5.73462 5.76151 5.09837 6.45071 5.02102 7.21425C4.88466 8.56041 5.46198 10.2574 7.64515 12.295C10.1673 14.649 12.187 14.96 13.5021 14.6415C14.2479 14.4608 14.844 13.7365 15.2202 13.1435C15.4767 12.7392 15.2742 12.2023 14.8139 12.0701Z" fill="#E8E8E8"/>
</g>
<defs>
<clipPath id="clip0">
<rect width="20" height="20" fill="white"/>
</clipPath>
</defs>
</svg>
